<?xml version="1.0" standalone="no"?>
<!DOCTYPE svg PUBLIC "-//W3C//DTD SVG 20010904//EN"
 "http://www.w3.org/TR/2001/REC-SVG-20010904/DTD/svg10.dtd">
<svg version="1.0" xmlns="http://www.w3.org/2000/svg"
 width="80.000000pt" height="80.000000pt" viewBox="0 0 80.000000 80.000000"
 preserveAspectRatio="xMidYMid meet">
<metadata>
Created by potrace 1.11, written by Peter Selinger 2001-2013
</metadata>
<g transform="translate(0.000000,80.000000) scale(0.100000,-0.100000)"
fill="#000000" stroke="none">
<path d="M305 735 c-116 -31 -224 -126 -266 -233 -32 -80 -32 -204 0 -284 26
-67 102 -155 166 -192 42 -25 50 -26 202 -26 158 0 159 0 204 28 47 31 88 69
124 117 30 40 65 155 65 215 0 98 -60 230 -134 292 -99 84 -240 116 -361 83z
m241 -69 c190 -87 260 -311 151 -482 -95 -148 -275 -202 -434 -129 -174 79
-247 270 -168 443 79 172 278 247 451 168z"/>
<path d="M350 585 c0 -10 -11 -15 -35 -15 -24 0 -35 -5 -35 -15 0 -9 -9 -15
-25 -15 -16 0 -25 -6 -25 -15 0 -8 -7 -15 -15 -15 -9 0 -15 -9 -15 -25 0 -14
-4 -25 -10 -25 -6 0 -10 -30 -10 -71 0 -69 12 -99 39 -99 6 0 11 -7 11 -15 0
-8 5 -15 10 -15 6 0 10 -7 10 -15 0 -8 7 -15 15 -15 8 0 15 -7 15 -15 0 -10
11 -15 35 -15 24 0 35 -5 35 -15 0 -12 13 -15 55 -15 42 0 55 3 55 15 0 10 11
15 35 15 24 0 35 5 35 15 0 9 9 15 25 15 16 0 25 6 25 15 0 8 7 15 15 15 9 0
15 9 15 25 0 14 5 25 10 25 6 0 10 32 10 75 0 43 -4 75 -10 75 -5 0 -10 7 -10
15 0 8 -5 15 -11 15 -14 0 -39 25 -39 39 0 6 -7 11 -15 11 -8 0 -15 7 -15 15
0 11 -12 15 -50 15 -38 0 -50 4 -50 15 0 11 -11 15 -40 15 -29 0 -40 -4 -40
-15z"/>
</g>
</svg>
